<svg width="500" height="112" viewBox="0 0 500 112" fill="none" xmlns="http://www.w3.org/2000/svg">
<rect width="500" height="112" rx="56" fill="#222222"/>
<path d="M48.374 76V36.526H64.088C71.864 36.526 76.616 40.576 76.616 47.164C76.616 51.538 74.672 54.67 70.946 56.236C75.104 57.586 77.21 60.718 77.21 65.308C77.21 72.058 72.512 76 64.358 76H48.374ZM63.494 42.628H55.286V53.374H63.656C67.436 53.374 69.542 51.376 69.542 47.866C69.542 44.464 67.382 42.628 63.494 42.628ZM64.088 59.206H55.286V69.898H64.088C67.976 69.898 70.136 68.008 70.136 64.444C70.136 61.096 67.922 59.206 64.088 59.206ZM90.4598 76H83.5478V36.526H98.6138C107.578 36.526 112.816 41.062 112.816 48.838C112.816 54.13 110.332 57.91 105.688 59.8L113.194 76H105.634L98.9378 61.258H90.4598V76ZM90.4598 42.682V55.156H98.6138C102.988 55.156 105.58 52.834 105.58 48.838C105.58 44.896 102.988 42.682 98.6138 42.682H90.4598ZM144.24 76H119.724V36.526H144.24V42.898H126.636V53.05H142.404V59.152H126.636V69.628H144.24V76ZM155.135 76H147.953L162.209 36.526H169.283L183.539 76H176.249L173.063 66.874H158.321L155.135 76ZM164.855 48.298L160.373 61.042H171.065L166.529 48.298C166.205 47.272 165.827 46.084 165.719 45.274C165.557 46.03 165.233 47.218 164.855 48.298ZM202.691 76H188.489V36.526H202.313C213.977 36.526 222.023 44.572 222.023 56.344C222.023 67.954 214.139 76 202.691 76ZM201.665 42.898H195.401V69.628H202.043C209.927 69.628 214.733 64.552 214.733 56.344C214.733 47.974 209.819 42.898 201.665 42.898ZM245.148 76.648C233.646 76.648 226.194 68.656 226.194 56.29C226.194 44.032 233.916 35.878 245.472 35.878C254.814 35.878 261.78 41.332 263.13 49.81H255.84C254.49 45.22 250.548 42.52 245.31 42.52C238.02 42.52 233.43 47.812 233.43 56.236C233.43 64.606 238.074 70.006 245.31 70.006C250.656 70.006 254.76 67.198 256.056 62.824H263.238C261.726 71.14 254.49 76.648 245.148 76.648ZM276.349 76H269.437V36.526H284.503C293.467 36.526 298.705 41.062 298.705 48.838C298.705 54.13 296.221 57.91 291.577 59.8L299.083 76H291.523L284.827 61.258H276.349V76ZM276.349 42.682V55.156H284.503C288.877 55.156 291.469 52.834 291.469 48.838C291.469 44.896 288.877 42.682 284.503 42.682H276.349ZM305.237 61.582V36.526H312.149V61.15C312.149 66.82 315.227 69.952 320.843 69.952C326.459 69.952 329.591 66.766 329.591 61.15V36.526H336.503V61.582C336.503 70.816 330.455 76.648 320.843 76.648C311.285 76.648 305.237 70.87 305.237 61.582ZM351.701 76H345.005V36.526H351.701L364.445 67.954L377.189 36.526H383.993V76H377.297V63.85C377.297 55.912 377.297 53.59 377.675 50.782L367.631 76H361.259L351.269 50.836C351.647 53.212 351.701 56.938 351.701 61.852V76ZM392.729 76V36.526H408.443C416.219 36.526 420.971 40.576 420.971 47.164C420.971 51.538 419.027 54.67 415.301 56.236C419.459 57.586 421.565 60.718 421.565 65.308C421.565 72.058 416.867 76 408.713 76H392.729ZM407.849 42.628H399.641V53.374H408.011C411.791 53.374 413.897 51.376 413.897 47.866C413.897 44.464 411.737 42.628 407.849 42.628ZM408.443 59.206H399.641V69.898H408.443C412.331 69.898 414.491 68.008 414.491 64.444C414.491 61.096 412.277 59.206 408.443 59.206ZM425.635 47.542C425.635 40.63 431.359 35.824 439.675 35.824C447.667 35.824 452.743 40.252 452.959 47.38H446.047C445.885 43.978 443.455 41.98 439.567 41.98C435.301 41.98 432.547 44.032 432.547 47.326C432.547 50.134 434.059 51.7 437.353 52.456L443.563 53.806C450.313 55.264 453.607 58.72 453.607 64.606C453.607 71.95 447.883 76.702 439.189 76.702C430.765 76.702 425.257 72.22 425.095 65.146H432.007C432.061 68.494 434.761 70.492 439.189 70.492C443.779 70.492 446.695 68.494 446.695 65.2C446.695 62.554 445.345 60.988 442.105 60.286L435.841 58.882C429.145 57.424 425.635 53.59 425.635 47.542Z" fill="white"/>
</svg>
